<?xml version="1.0" standalone="no"?>
<!DOCTYPE svg PUBLIC "-//W3C//DTD SVG 20010904//EN"
 "http://www.w3.org/TR/2001/REC-SVG-20010904/DTD/svg10.dtd">
<svg version="1.0" xmlns="http://www.w3.org/2000/svg"
 width="188.000000pt" height="188.000000pt" viewBox="0 0 188.000000 188.000000"
 preserveAspectRatio="xMidYMid meet">

<g transform="translate(0.000000,188.000000) scale(0.100000,-0.100000)"
fill="#000000" stroke="none">
<path d="M917 1723 c-17 -17 -2 -35 61 -72 86 -51 155 -120 190 -190 37 -76
39 -192 4 -262 -64 -131 -238 -234 -430 -254 -34 -4 -64 -11 -67 -15 -16 -26
91 -60 189 -60 68 0 190 31 264 67 81 40 165 121 201 195 68 142 37 328 -74
447 -55 59 -113 93 -212 127 -72 24 -114 30 -126 17z"/>
<path d="M630 1624 c-97 -25 -210 -88 -273 -151 -132 -130 -198 -261 -218
-427 -49 -395 206 -764 596 -867 123 -33 302 -33 425 -1 334 87 560 354 577
678 4 73 2 103 -6 109 -17 10 -19 7 -41 -81 -52 -206 -215 -419 -382 -497
-209 -98 -431 -96 -632 5 -134 68 -235 166 -303 294 -117 220 -93 471 61 666
80 100 228 192 351 219 33 7 68 16 78 21 21 11 22 34 1 42 -29 11 -178 5 -234
-10z"/>
<path d="M1500 1251 c0 -44 -4 -90 -9 -103 -4 -13 -11 -36 -15 -53 l-6 -30 15
25 c8 14 15 36 15 50 1 22 2 23 9 6 7 -19 8 -18 14 4 3 13 2 31 -3 41 -6 9 -9
42 -7 73 l2 55 17 -32 c9 -18 17 -25 18 -17 0 19 -28 60 -41 60 -5 0 -9 -36
-9 -79z"/>
<path d="M1527 1218 c8 -46 26 -73 19 -29 -3 18 -6 40 -6 47 0 8 -4 14 -10 14
-5 0 -7 -14 -3 -32z"/>
<path d="M1557 1210 c4 -25 6 -67 5 -95 -1 -27 3 -57 9 -65 14 -20 5 144 -10
180 -9 20 -10 17 -4 -20z"/>
<path d="M1528 1107 c-2 -20 1 -34 7 -34 6 0 9 14 7 34 -2 18 -5 33 -7 33 -2
0 -5 -15 -7 -33z"/>
<path d="M1491 1068 c-10 -23 -16 -27 -23 -17 -5 9 -6 3 -2 -16 3 -19 2 -25
-4 -17 -6 9 -13 2 -24 -25 -22 -56 -104 -159 -157 -198 -80 -60 -85 -65 -74
-65 5 0 26 13 44 30 19 16 39 30 46 30 6 0 21 11 32 26 11 14 23 24 28 22 4
-2 9 6 11 17 6 32 23 49 34 33 6 -10 10 -10 18 2 15 23 12 34 -5 20 -20 -17
-19 -3 3 24 9 13 23 21 30 18 14 -4 17 -32 3 -32 -5 0 -14 -14 -20 -32 -9 -25
-8 -35 3 -47 11 -12 13 -26 7 -53 -5 -20 -6 -39 -3 -42 3 -4 0 -6 -7 -6 -6 0
-14 7 -17 15 -4 8 -11 15 -17 15 -5 0 -2 -9 8 -20 10 -11 15 -23 11 -28 -4 -4
-16 4 -27 17 -11 13 -21 22 -23 20 -2 -2 6 -17 19 -33 23 -28 23 -28 43 -10
25 25 102 148 102 164 0 9 -6 7 -20 -5 -12 -10 -18 -25 -15 -33 3 -9 0 -12 -9
-9 -9 4 -13 1 -10 -7 3 -7 -3 -26 -12 -42 l-16 -29 6 34 c4 24 1 40 -10 52
-14 16 -14 20 1 48 8 17 20 31 25 31 6 0 10 7 10 15 0 8 -5 15 -11 15 -6 0 -9
12 -7 28 2 15 8 26 14 25 7 -1 10 6 7 17 -3 11 -1 20 5 20 9 0 27 49 20 56 -2
1 -10 -11 -17 -28z"/>
<path d="M1529 1043 c-6 -72 -5 -75 7 -59 14 20 25 21 19 1 -16 -50 -16 -50
-24 -36 -6 9 -11 10 -15 2 -4 -6 -2 -11 3 -11 6 0 11 -5 11 -11 0 -5 -6 -7
-12 -3 -9 5 -8 2 1 -10 13 -16 15 -15 27 14 17 40 28 100 19 100 -4 0 -14 -8
-21 -17 -12 -16 -13 -14 -8 15 4 17 4 32 0 32 -3 0 -7 -8 -7 -17z"/>
<path d="M1501 1014 c0 -11 3 -14 6 -6 3 7 2 16 -1 19 -3 4 -6 -2 -5 -13z"/>
<path d="M1380 860 c0 -5 5 -10 11 -10 5 0 7 -4 4 -10 -3 -5 -1 -10 4 -10 13
0 13 3 5 24 -7 18 -24 22 -24 6z"/>
<path d="M1390 800 c0 -5 5 -10 10 -10 6 0 10 5 10 10 0 6 -4 10 -10 10 -5 0
-10 -4 -10 -10z"/>
<path d="M1295 770 c-3 -5 -1 -10 4 -10 6 0 11 -7 11 -15 0 -8 5 -15 10 -15 6
0 10 7 10 15 0 8 -5 15 -11 15 -5 0 -7 5 -4 10 3 6 2 10 -4 10 -5 0 -13 -4
-16 -10z"/>
<path d="M535 760 c-3 -5 -1 -19 5 -31 9 -15 15 -18 23 -10 20 20 31 11 12 -9
-18 -20 -18 -21 0 -14 12 5 16 4 11 -4 -10 -17 60 -78 132 -114 59 -30 63 -31
79 -15 16 16 16 17 0 17 -11 0 -15 -4 -11 -12 5 -8 2 -9 -10 -5 -10 4 -23 7
-29 8 -7 0 -3 5 8 10 18 8 18 9 -4 5 -23 -5 -59 10 -73 29 -12 16 0 19 19 4
16 -13 17 -12 4 3 -9 12 -21 16 -37 12 -18 -5 -23 -2 -21 7 2 8 2 10 -1 6 -2
-5 -15 2 -28 14 -18 17 -21 25 -12 31 10 6 10 8 1 8 -7 0 -13 5 -13 11 0 6 8
8 18 5 9 -3 1 8 -18 24 -37 32 -45 35 -55 20z m35 -22 c0 -13 -23 -5 -28 10
-2 7 2 10 12 6 9 -3 16 -11 16 -16z"/>
<path d="M1250 736 c0 -2 7 -7 16 -10 8 -3 12 -2 9 4 -6 10 -25 14 -25 6z"/>
<path d="M1118 701 c-52 -21 -65 -30 -58 -41 8 -13 12 -12 24 5 14 17 17 18
27 5 9 -13 10 -13 6 2 -4 11 1 18 16 22 19 4 71 37 57 35 -3 -1 -35 -13 -72
-28z"/>
<path d="M1355 707 c-4 -15 -16 -32 -27 -38 -12 -6 -17 -17 -14 -26 4 -11 2
-13 -9 -10 -19 8 -31 -11 -16 -26 9 -9 11 -7 5 8 -6 16 -4 18 6 8 17 -16 41 2
33 23 -3 7 2 17 11 20 9 3 16 16 16 28 0 17 2 18 10 6 5 -8 10 -10 10 -5 0 6
-4 17 -9 24 -8 12 -11 9 -16 -12z"/>
<path d="M1240 700 c14 -11 31 -20 39 -20 11 0 11 -3 1 -15 -20 -24 -6 -28 15
-5 10 11 13 20 7 20 -7 0 -12 8 -12 18 0 13 -2 14 -9 4 -7 -11 -11 -11 -24 2
-8 9 -22 16 -29 16 -7 0 -2 -9 12 -20z"/>
<path d="M648 698 c5 -5 16 -8 23 -6 8 3 3 7 -10 11 -17 4 -21 3 -13 -5z"/>
<path d="M620 679 c0 -5 5 -7 10 -4 6 3 10 8 10 11 0 2 -4 4 -10 4 -5 0 -10
-5 -10 -11z"/>
<path d="M694 681 c4 -5 0 -11 -6 -14 -8 -2 -9 -8 -4 -13 5 -5 11 -4 13 4 3 6
14 12 26 13 21 0 21 1 2 9 -27 12 -37 12 -31 1z"/>
<path d="M1215 680 c3 -5 11 -10 16 -10 6 0 7 5 4 10 -3 6 -11 10 -16 10 -6 0
-7 -4 -4 -10z"/>
<path d="M1370 670 c-13 -11 -21 -22 -18 -25 2 -3 15 6 28 20 28 30 22 33 -10
5z"/>
<path d="M733 660 c-22 -9 -23 -40 -1 -40 5 0 6 5 3 10 -11 17 44 31 83 21 21
-5 65 -6 102 -2 l65 8 -80 2 c-44 1 -96 3 -115 6 -19 3 -45 0 -57 -5z"/>
<path d="M1018 663 c7 -3 16 -2 19 1 4 3 -2 6 -13 5 -11 0 -14 -3 -6 -6z"/>
<path d="M763 633 c9 -2 23 -2 30 0 6 3 -1 5 -18 5 -16 0 -22 -2 -12 -5z"/>
<path d="M836 630 c5 -4 27 -11 49 -14 45 -7 38 -2 -19 13 -22 6 -35 6 -30 1z"/>
<path d="M937 633 c18 -2 50 -2 70 0 21 2 7 4 -32 4 -38 0 -55 -2 -38 -4z"/>
<path d="M760 610 c0 -5 4 -10 9 -10 6 0 13 5 16 10 3 6 -1 10 -9 10 -9 0 -16
-4 -16 -10z"/>
<path d="M960 610 c0 -12 8 -12 35 0 18 8 17 9 -7 9 -16 1 -28 -3 -28 -9z"/>
<path d="M1020 616 c0 -2 7 -6 15 -10 8 -3 15 -1 15 4 0 6 -7 10 -15 10 -8 0
-15 -2 -15 -4z"/>
<path d="M1200 600 c0 -5 5 -10 10 -10 6 0 10 5 10 10 0 6 -4 10 -10 10 -5 0
-10 -4 -10 -10z"/>
<path d="M1145 593 c-28 -7 -39 -19 -24 -28 8 -6 10 -4 4 5 -6 9 -4 12 6 8 8
-3 23 0 34 8 19 14 16 15 -20 7z"/>
<path d="M1250 591 c0 -5 -10 -11 -22 -14 -12 -4 -19 -9 -15 -13 3 -4 21 3 39
15 22 14 27 21 16 21 -10 0 -18 -4 -18 -9z"/>
<path d="M838 583 c7 -3 16 -2 19 1 4 3 -2 6 -13 5 -11 0 -14 -3 -6 -6z"/>
<path d="M1190 571 c0 -5 -10 -12 -22 -14 -20 -4 -19 -4 5 -6 18 -1 27 4 27
14 0 8 -2 15 -5 15 -3 0 -5 -4 -5 -9z"/>
<path d="M828 563 c6 -2 18 -2 25 0 6 3 1 5 -13 5 -14 0 -19 -2 -12 -5z"/>
<path d="M1049 553 c-13 -15 -12 -15 9 -4 23 12 28 21 13 21 -5 0 -15 -7 -22
-17z"/>
<path d="M872 543 c2 -14 16 -19 68 -23 79 -6 180 6 197 24 4 5 -8 5 -27 1
-55 -11 -200 -17 -218 -9 -12 6 -4 10 28 14 l45 7 -48 1 c-40 2 -47 -1 -45
-15z"/>
<path d="M815 540 c11 -5 27 -9 35 -9 9 0 8 4 -5 9 -11 5 -27 9 -35 9 -9 0 -8
-4 5 -9z"/>
</g>
</svg>
