<?xml version="1.0" standalone="no"?>
<!DOCTYPE svg PUBLIC "-//W3C//DTD SVG 20010904//EN"
 "http://www.w3.org/TR/2001/REC-SVG-20010904/DTD/svg10.dtd">
<svg version="1.0" xmlns="http://www.w3.org/2000/svg"
 width="512.000000pt" height="512.000000pt" viewBox="0 0 512.000000 512.000000"
 preserveAspectRatio="xMidYMid meet">

<g transform="translate(0.000000,512.000000) scale(0.100000,-0.100000)"
fill="#000000" stroke="none">
<path d="M2360 4865 c0 -24 -3 -25 -55 -25 -54 0 -55 0 -55 -30 0 -25 -4 -30
-24 -30 -19 0 -25 -6 -28 -27 -2 -22 -9 -29 -30 -31 -22 -3 -28 -9 -28 -28 0
-20 -5 -24 -30 -24 -27 0 -30 -3 -30 -30 0 -25 -4 -30 -25 -30 -20 0 -25 -5
-25 -25 0 -21 -5 -25 -30 -25 -27 0 -30 -3 -30 -30 0 -27 -3 -30 -30 -30 -27
0 -30 -3 -30 -30 0 -25 -4 -30 -25 -30 -20 0 -25 -5 -25 -25 0 -21 -5 -25 -30
-25 -27 0 -30 -3 -30 -30 0 -25 -4 -30 -24 -30 -19 0 -25 -6 -28 -27 l-3 -28
-446 -3 -446 -2 -7 -38 c-3 -20 -6 -223 -6 -449 l0 -413 -25 0 c-20 0 -25 -5
-25 -25 0 -21 -5 -25 -30 -25 -27 0 -30 -3 -30 -30 0 -25 -4 -30 -25 -30 -20
0 -25 -5 -25 -25 0 -21 -5 -25 -30 -25 -27 0 -30 -3 -30 -30 0 -27 -3 -30 -30
-30 -27 0 -30 -3 -30 -30 0 -25 -4 -30 -25 -30 -20 0 -25 -5 -25 -25 0 -21 -5
-25 -30 -25 -27 0 -30 -3 -30 -30 0 -25 -4 -30 -24 -30 -19 0 -25 -6 -28 -27
-2 -22 -9 -29 -30 -31 -22 -3 -28 -9 -28 -28 0 -20 -5 -24 -30 -24 -27 0 -30
-3 -30 -30 0 -25 -4 -30 -25 -30 l-25 0 0 -250 0 -250 25 0 c21 0 25 -5 25
-30 0 -27 3 -30 30 -30 27 0 30 -3 30 -30 0 -25 4 -30 25 -30 20 0 25 -5 25
-25 0 -21 5 -25 30 -25 27 0 30 -3 30 -30 0 -25 4 -30 24 -30 19 0 25 -6 28
-27 2 -22 9 -29 31 -31 21 -3 27 -9 27 -28 0 -20 5 -24 30 -24 27 0 30 -3 30
-30 0 -25 4 -30 24 -30 19 0 25 -6 28 -27 2 -22 9 -29 31 -31 21 -3 27 -9 27
-28 0 -20 5 -24 30 -24 27 0 30 -3 30 -30 0 -25 4 -30 25 -30 l25 0 0 -404 c0
-222 3 -424 6 -450 l7 -46 443 0 444 0 0 -25 c0 -21 5 -25 30 -25 27 0 30 -3
30 -30 0 -25 4 -30 24 -30 19 0 25 -6 28 -27 2 -22 9 -29 31 -31 21 -3 27 -9
27 -28 0 -20 5 -24 30 -24 27 0 30 -3 30 -30 0 -25 4 -30 24 -30 19 0 25 -6
28 -28 2 -21 9 -28 31 -30 21 -3 27 -9 27 -28 0 -20 5 -24 30 -24 27 0 30 -3
30 -30 0 -25 4 -30 25 -30 20 0 25 -5 25 -25 0 -21 5 -25 30 -25 27 0 30 -3
30 -30 0 -27 3 -30 30 -30 25 0 30 -4 30 -25 l0 -25 255 0 255 0 0 25 c0 20 5
25 25 25 20 0 25 5 25 24 0 19 6 25 28 28 21 2 28 9 30 30 3 21 9 27 30 30 21
2 28 9 30 31 3 21 9 27 28 27 19 0 24 5 24 24 0 19 6 25 28 28 21 2 28 9 30
31 3 21 9 27 28 27 19 0 24 5 24 24 0 19 6 25 28 28 21 2 28 9 30 30 3 21 9
27 30 30 21 2 28 9 30 31 3 21 9 27 28 27 19 0 24 5 24 24 0 19 6 25 28 28 21
2 28 9 30 30 l3 28 443 0 443 0 7 46 c3 26 6 228 6 450 l0 403 28 3 c21 2 28
9 30 31 3 21 9 27 28 27 19 0 24 5 24 24 0 19 6 25 28 28 21 2 28 9 30 30 3
21 9 27 30 30 21 2 28 9 30 31 3 21 9 27 28 27 19 0 24 5 24 24 0 19 6 25 28
28 21 2 28 9 30 31 3 21 9 27 28 27 19 0 24 5 24 24 0 19 6 25 28 28 21 2 28
9 30 30 3 21 9 27 30 30 21 2 28 9 30 31 3 21 9 27 28 27 19 0 24 5 24 25 0
20 5 25 25 25 l25 0 0 255 0 255 -25 0 c-21 0 -25 5 -25 30 0 27 -3 30 -30 30
-27 0 -30 3 -30 30 0 25 -4 30 -25 30 -20 0 -25 5 -25 25 0 21 -5 25 -30 25
-27 0 -30 3 -30 30 0 27 -3 30 -30 30 -25 0 -30 4 -30 25 0 20 -5 25 -25 25
-21 0 -25 5 -25 30 0 27 -3 30 -30 30 -27 0 -30 3 -30 30 0 27 -3 30 -30 30
-25 0 -30 4 -30 25 0 20 -5 25 -25 25 -21 0 -25 5 -25 30 0 27 -3 30 -30 30
-27 0 -30 3 -30 30 0 25 -4 30 -25 30 l-25 0 0 408 c0 224 -3 424 -6 445 l-7
37 -406 0 c-223 0 -423 3 -443 6 -32 6 -38 11 -38 30 0 20 -5 24 -30 24 -27 0
-30 3 -30 30 0 27 -3 30 -30 30 -25 0 -30 4 -30 25 0 20 -5 25 -25 25 -21 0
-25 5 -25 30 0 27 -3 30 -30 30 -27 0 -30 3 -30 30 0 27 -3 30 -30 30 -25 0
-30 4 -30 25 0 20 -5 25 -25 25 -21 0 -25 5 -25 30 0 27 -3 30 -30 30 -27 0
-30 3 -30 30 0 25 -4 30 -25 30 -20 0 -25 5 -25 25 0 21 -5 25 -30 25 -27 0
-30 3 -30 30 0 27 -3 30 -30 30 -25 0 -30 4 -30 25 l0 25 -225 0 -225 0 0 -25z
m450 -110 c0 -21 5 -25 30 -25 27 0 30 -3 30 -30 0 -27 3 -30 30 -30 27 0 30
-3 30 -30 0 -25 4 -30 25 -30 20 0 25 -5 25 -25 0 -21 5 -25 30 -25 27 0 30
-3 30 -30 0 -27 3 -30 30 -30 25 0 30 -4 30 -25 0 -20 5 -25 25 -25 21 0 25
-5 25 -30 0 -27 3 -30 30 -30 27 0 30 -3 30 -30 0 -25 4 -30 25 -30 20 0 25
-5 25 -25 0 -21 5 -25 30 -25 27 0 30 -3 30 -30 0 -27 3 -30 30 -30 25 0 30
-4 30 -24 0 -19 6 -25 28 -28 21 -2 28 -9 30 -30 3 -22 9 -28 28 -28 20 0 24
-5 24 -30 0 -27 3 -30 30 -30 25 0 30 -4 30 -25 0 -20 5 -25 25 -25 21 0 25
-5 25 -30 0 -27 3 -30 30 -30 25 0 30 -4 30 -24 0 -19 6 -25 28 -28 21 -2 28
-9 30 -30 3 -22 9 -28 28 -28 20 0 24 -5 24 -30 0 -27 -3 -30 -30 -30 -25 0
-30 -4 -30 -24 0 -19 -6 -25 -27 -28 -22 -2 -29 -9 -31 -30 -3 -22 -9 -28 -28
-28 -20 0 -24 -5 -24 -30 0 -27 -3 -30 -30 -30 -25 0 -30 -4 -30 -25 0 -20 -5
-25 -25 -25 -21 0 -25 -5 -25 -30 0 -27 -3 -30 -30 -30 -25 0 -30 -4 -30 -24
0 -19 -6 -25 -27 -28 -22 -2 -29 -9 -31 -30 -3 -22 -9 -28 -28 -28 -20 0 -24
-5 -24 -30 0 -27 -3 -30 -30 -30 -25 0 -30 -4 -30 -24 0 -19 -6 -25 -27 -28
-22 -2 -29 -9 -31 -30 -3 -22 -9 -28 -28 -28 -20 0 -24 -5 -24 -30 0 -27 -3
-30 -30 -30 -25 0 -30 -4 -30 -24 0 -19 -6 -25 -27 -28 -22 -2 -29 -9 -31 -30
-3 -22 -9 -28 -28 -28 -19 0 -24 -5 -24 -24 0 -19 -6 -25 -27 -28 -22 -2 -29
-9 -31 -30 -3 -22 -9 -28 -28 -28 -20 0 -24 -5 -24 -30 0 -27 -3 -30 -30 -30
-25 0 -30 -4 -30 -24 0 -19 -6 -25 -27 -28 -22 -2 -29 -9 -31 -30 -3 -22 -9
-28 -28 -28 -20 0 -24 -5 -24 -30 0 -27 -3 -30 -30 -30 -25 0 -30 -4 -30 -24
0 -20 -6 -24 -40 -30 -22 -3 -58 -3 -79 0 -34 5 -40 11 -43 33 -2 20 -9 27
-30 29 -22 3 -28 9 -28 28 0 19 -5 24 -24 24 -19 0 -25 6 -28 28 -2 21 -9 28
-30 30 -22 3 -28 9 -28 28 0 19 -5 24 -24 24 -19 0 -25 6 -28 28 -2 21 -9 28
-30 30 -24 3 -27 8 -34 58 l-6 54 -48 0 c-46 0 -49 2 -52 28 -2 21 -9 28 -30
30 -21 3 -27 9 -30 30 -2 21 -9 28 -30 30 -22 3 -28 9 -28 28 0 19 -5 24 -24
24 -19 0 -25 6 -28 28 -2 21 -9 28 -30 30 -22 3 -28 9 -28 28 0 20 -5 24 -30
24 -30 0 -30 1 -30 55 0 54 0 55 30 55 25 0 30 4 30 24 0 19 6 25 28 28 21 2
28 9 30 31 3 21 9 27 28 27 20 0 24 5 24 30 0 27 3 30 30 30 25 0 30 4 30 24
0 19 6 25 28 28 21 2 28 9 30 31 3 21 9 27 28 27 20 0 24 5 24 30 0 27 3 30
30 30 25 0 30 4 30 25 0 20 5 25 25 25 21 0 25 5 25 30 0 27 3 30 30 30 25 0
30 4 30 24 0 19 6 25 28 28 21 2 28 9 30 31 3 21 9 27 28 27 20 0 24 5 24 30
0 27 3 30 30 30 25 0 30 4 30 24 0 19 6 25 28 28 21 2 28 9 30 31 3 21 9 27
28 27 20 0 24 5 24 30 0 25 4 30 25 30 21 0 25 5 25 30 0 30 -1 30 -55 30 -54
0 -55 0 -55 -30 0 -27 -3 -30 -30 -30 -25 0 -30 -4 -30 -25 0 -20 -5 -25 -25
-25 -21 0 -25 -5 -25 -30 0 -27 -3 -30 -30 -30 -27 0 -30 -3 -30 -30 0 -27 -3
-30 -30 -30 -25 0 -30 -4 -30 -25 0 -20 -5 -25 -25 -25 -21 0 -25 -5 -25 -30
0 -27 -3 -30 -30 -30 -27 0 -30 -3 -30 -30 0 -25 -4 -30 -25 -30 -20 0 -25 -5
-25 -25 0 -21 -5 -25 -30 -25 -27 0 -30 -3 -30 -30 0 -27 -3 -30 -30 -30 -25
0 -30 -4 -30 -25 0 -20 -5 -25 -25 -25 -21 0 -25 -5 -25 -30 0 -27 -3 -30 -30
-30 -27 0 -30 -3 -30 -30 0 -27 -3 -30 -30 -30 -25 0 -30 -4 -30 -25 0 -20 -5
-25 -25 -25 -21 0 -25 -5 -25 -29 0 -26 -4 -29 -44 -34 -23 -4 -59 -4 -79 0
-30 4 -36 10 -39 32 -2 20 -9 27 -30 29 -21 3 -27 9 -30 30 -2 21 -9 28 -30
30 -22 3 -28 9 -28 28 0 19 -5 24 -24 24 -19 0 -25 6 -28 28 -2 21 -9 28 -30
30 -22 3 -28 9 -28 28 0 20 -5 24 -30 24 -25 0 -30 4 -30 24 0 19 6 25 28 28
21 2 28 9 30 31 3 21 9 27 28 27 20 0 24 5 24 30 0 27 3 30 30 30 27 0 30 3
30 30 0 25 4 30 25 30 20 0 25 5 25 25 0 21 5 25 30 25 27 0 30 3 30 30 0 27
3 30 30 30 25 0 30 4 30 25 0 20 5 25 25 25 21 0 25 5 25 30 0 27 3 30 30 30
27 0 30 3 30 30 0 27 3 30 30 30 25 0 30 4 30 25 0 20 5 25 25 25 21 0 25 5
25 30 0 27 3 30 30 30 25 0 30 4 30 24 0 19 6 25 28 28 21 2 28 9 30 31 3 21
9 27 28 27 20 0 24 5 24 30 0 27 3 30 30 30 25 0 30 4 30 25 0 20 5 25 25 25
21 0 25 5 25 30 0 27 3 30 30 30 27 0 30 3 30 30 0 27 3 30 30 30 25 0 30 4
30 25 l0 25 250 0 250 0 0 -25z m1078 -1067 c3 -22 9 -28 28 -28 20 0 24 -5
24 -30 0 -27 3 -30 30 -30 25 0 30 -4 30 -25 0 -20 5 -25 25 -25 21 0 25 -5
25 -30 0 -27 3 -30 30 -30 25 0 30 -4 30 -24 0 -19 6 -25 28 -28 21 -2 28 -9
30 -30 3 -22 9 -28 28 -28 20 0 24 -5 24 -30 0 -27 3 -30 30 -30 27 0 30 -3
30 -30 0 -25 4 -30 25 -30 20 0 25 -5 25 -25 0 -21 5 -25 30 -25 27 0 30 -3
30 -30 0 -27 3 -30 30 -30 25 0 30 -4 30 -25 0 -20 5 -25 25 -25 21 0 25 -5
25 -30 0 -27 3 -30 30 -30 27 0 30 -3 30 -30 0 -25 4 -30 25 -30 20 0 25 -5
25 -25 0 -21 5 -25 30 -25 27 0 30 -3 30 -30 0 -27 3 -30 30 -30 27 0 30 -3
30 -30 0 -25 4 -30 25 -30 20 0 25 -5 25 -27 5 -281 6 -456 2 -490 -4 -39 -7
-43 -33 -43 -24 0 -29 -4 -29 -25 0 -20 -5 -25 -25 -25 -21 0 -25 -5 -25 -30
0 -27 -3 -30 -30 -30 -27 0 -30 -3 -30 -30 0 -27 -3 -30 -30 -30 -25 0 -30 -4
-30 -25 0 -20 -5 -25 -25 -25 -21 0 -25 -5 -25 -30 0 -27 -3 -30 -30 -30 -25
0 -30 -4 -30 -25 0 -20 -5 -25 -25 -25 -21 0 -25 -5 -25 -30 0 -27 -3 -30 -30
-30 -27 0 -30 -3 -30 -30 0 -27 -3 -30 -30 -30 -25 0 -30 -4 -30 -25 0 -20 -5
-25 -25 -25 -21 0 -25 -5 -25 -30 0 -27 -3 -30 -30 -30 -27 0 -30 -3 -30 -30
0 -25 -4 -30 -25 -30 -20 0 -25 -5 -25 -25 0 -21 -5 -25 -30 -25 -27 0 -30 -3
-30 -30 0 -27 -3 -30 -30 -30 -27 0 -30 -3 -30 -30 0 -25 -4 -30 -25 -30 -20
0 -25 -5 -25 -25 0 -21 -5 -25 -30 -25 -27 0 -30 -3 -30 -30 0 -33 -6 -35 -72
-24 -32 6 -38 11 -38 30 0 19 -5 24 -24 24 -19 0 -25 6 -28 28 -2 21 -9 28
-30 30 -22 3 -28 9 -28 28 0 19 -5 24 -24 24 -19 0 -25 6 -28 28 -2 21 -9 28
-30 30 -21 3 -27 9 -30 30 -2 21 -9 28 -30 30 -22 3 -28 9 -28 28 0 19 -5 24
-24 24 -19 0 -25 6 -28 28 -2 21 -9 28 -30 30 -21 3 -27 9 -30 30 -2 21 -9 28
-30 30 -22 3 -28 9 -28 28 0 19 -5 24 -24 24 -19 0 -25 6 -28 28 -2 21 -9 28
-30 30 -22 3 -28 9 -28 28 0 19 -5 24 -24 24 -19 0 -25 6 -28 28 -2 21 -9 28
-30 30 -21 3 -27 9 -30 30 -2 21 -9 28 -30 30 -22 3 -28 9 -28 28 0 19 -5 24
-24 24 -19 0 -25 6 -28 28 -2 21 -9 28 -30 30 -21 3 -27 9 -30 30 -2 21 -9 28
-30 30 -22 3 -28 9 -28 28 0 19 -5 24 -24 24 -19 0 -25 6 -28 28 -2 21 -9 28
-30 30 -22 3 -28 9 -28 28 0 19 -5 24 -24 24 -19 0 -25 6 -28 28 -2 21 -9 28
-30 30 -27 3 -28 6 -28 58 0 51 1 54 25 54 20 0 25 5 25 25 0 21 5 25 30 25
27 0 30 3 30 30 0 25 4 30 24 30 19 0 25 6 28 28 2 21 9 28 31 30 21 3 27 9
27 28 0 20 5 24 30 24 27 0 30 3 30 30 0 27 3 30 30 30 25 0 30 4 30 25 0 37
38 35 42 -2 2 -22 9 -29 31 -31 21 -3 27 -9 27 -28 0 -20 5 -24 30 -24 27 0
30 -3 30 -30 0 -25 4 -30 25 -30 20 0 25 -5 25 -25 0 -21 5 -25 30 -25 27 0
30 -3 30 -30 0 -25 4 -30 24 -30 19 0 25 -6 28 -27 2 -22 9 -29 31 -31 21 -3
27 -9 27 -28 0 -20 5 -24 30 -24 27 0 30 -3 30 -30 0 -25 4 -30 24 -30 19 0
25 -6 28 -27 2 -22 9 -29 31 -31 21 -3 27 -9 27 -28 0 -20 5 -24 30 -24 27 0
30 -3 30 -30 0 -25 4 -30 25 -30 20 0 25 -5 25 -25 0 -21 5 -25 30 -25 27 0
30 -3 30 -30 0 -27 3 -30 30 -30 27 0 30 -3 30 -30 0 -25 4 -30 25 -30 20 0
25 -5 25 -25 0 -22 4 -25 35 -25 38 0 39 1 29 74 -6 40 -10 46 -30 46 -19 0
-24 5 -24 25 0 21 -5 25 -30 25 -27 0 -30 3 -30 30 0 25 -4 30 -25 30 -20 0
-25 5 -25 25 0 21 -5 25 -30 25 -27 0 -30 3 -30 30 0 27 -3 30 -30 30 -27 0
-30 3 -30 30 0 25 -4 30 -25 30 -20 0 -25 5 -25 25 0 21 -5 25 -30 25 -27 0
-30 3 -30 30 0 27 -3 30 -30 30 -27 0 -30 3 -30 30 0 25 -4 30 -25 30 -20 0
-25 5 -25 25 0 21 -5 25 -30 25 -27 0 -30 3 -30 30 0 25 -4 30 -25 30 -20 0
-25 5 -25 25 0 21 -5 25 -30 25 -27 0 -30 3 -30 30 0 27 -3 30 -30 30 -27 0
-30 3 -30 30 0 25 -4 30 -25 30 -24 0 -25 3 -25 55 0 52 1 55 25 55 20 0 25 5
25 25 0 21 5 25 30 25 27 0 30 3 30 30 0 25 4 30 24 30 19 0 25 6 28 28 2 21
9 28 31 30 21 3 27 9 27 28 0 20 5 24 30 24 27 0 30 3 30 30 0 25 4 30 25 30
21 0 25 -5 25 -30 0 -27 3 -30 30 -30 27 0 30 -3 30 -30 0 -25 4 -30 25 -30
20 0 25 -5 25 -25 0 -21 5 -25 30 -25 27 0 30 -3 30 -30 0 -25 4 -30 25 -30
20 0 25 -5 25 -25 0 -21 5 -25 30 -25 27 0 30 -3 30 -30 0 -27 3 -30 30 -30
27 0 30 -3 30 -30 0 -25 4 -30 25 -30 20 0 25 -5 25 -25 0 -21 5 -25 30 -25
27 0 30 -3 30 -30 0 -27 3 -30 30 -30 27 0 30 -3 30 -30 0 -25 4 -30 25 -30
20 0 25 -5 25 -25 0 -21 5 -25 30 -25 27 0 30 -3 30 -30 0 -25 4 -30 25 -30
20 0 25 -5 25 -25 0 -21 5 -25 30 -25 27 0 30 -3 30 -30 0 -27 3 -30 30 -30
27 0 30 -3 30 -30 0 -33 6 -35 73 -24 31 6 37 11 37 30 0 19 -5 24 -25 24 -21
0 -25 5 -25 30 0 27 -3 30 -30 30 -27 0 -30 3 -30 30 0 25 -4 30 -25 30 -20 0
-25 5 -25 25 0 21 -5 25 -30 25 -27 0 -30 3 -30 30 0 27 -3 30 -30 30 -27 0
-30 3 -30 30 0 25 -4 30 -25 30 -20 0 -25 5 -25 25 0 21 -5 25 -30 25 -27 0
-30 3 -30 30 0 25 -4 30 -24 30 -19 0 -25 6 -28 28 -2 21 -9 28 -30 30 -22 3
-28 9 -28 28 0 20 -5 24 -30 24 -27 0 -30 3 -30 30 0 25 -4 30 -25 30 -20 0
-25 5 -25 25 0 21 -5 25 -30 25 -27 0 -30 3 -30 30 0 27 -3 30 -30 30 -27 0
-30 3 -30 30 0 25 -4 30 -25 30 -20 0 -25 5 -25 25 0 21 -5 25 -30 25 -30 0
-30 1 -30 54 0 52 1 55 28 58 21 2 28 9 30 31 3 21 9 27 28 27 19 0 24 5 24
25 0 21 5 25 30 25 27 0 30 3 30 30 0 25 4 30 24 30 19 0 25 6 28 28 2 21 9
28 31 30 21 3 27 9 27 27 0 19 6 25 33 28 66 9 82 4 85 -25z m-2538 -2 c0 -19
6 -25 28 -28 21 -2 28 -9 30 -30 3 -22 9 -28 27 -28 18 0 24 -6 27 -27 2 -22
9 -29 31 -31 21 -3 27 -9 27 -27 0 -18 6 -24 28 -27 21 -2 28 -9 30 -30 3 -22
9 -28 28 -28 19 0 24 -5 24 -24 0 -19 6 -25 28 -28 21 -2 28 -9 30 -30 3 -22
9 -28 27 -28 18 0 24 -6 27 -27 2 -22 9 -29 31 -31 21 -3 27 -9 27 -27 0 -18
6 -24 28 -27 21 -2 28 -9 30 -30 3 -22 9 -28 27 -28 18 0 24 -6 27 -27 2 -22
9 -29 31 -31 21 -3 27 -9 27 -27 0 -18 6 -24 28 -27 21 -2 28 -9 30 -30 3 -22
9 -28 28 -28 19 0 24 -5 24 -24 0 -19 6 -25 28 -28 21 -2 28 -9 30 -30 3 -22
9 -28 27 -28 18 0 24 -6 27 -27 2 -22 9 -29 31 -31 21 -3 27 -9 27 -27 0 -18
6 -24 28 -27 21 -2 28 -9 30 -30 3 -22 9 -28 27 -28 18 0 24 -6 27 -27 2 -22
9 -29 31 -31 21 -3 27 -9 27 -28 0 -19 5 -24 24 -24 33 0 38 -12 30 -65 -5
-39 -10 -45 -30 -45 -20 0 -24 -5 -24 -30 0 -27 -3 -30 -30 -30 -25 0 -30 -4
-30 -24 0 -19 -6 -25 -27 -28 -22 -2 -29 -9 -31 -30 -3 -22 -9 -28 -28 -28
-20 0 -24 -5 -24 -30 0 -27 -3 -30 -30 -30 -25 0 -30 -4 -30 -25 0 -24 -3 -25
-55 -25 -52 0 -55 1 -55 25 0 20 -5 25 -25 25 -21 0 -25 5 -25 30 0 27 -3 30
-29 30 -25 0 -30 4 -33 28 -2 19 -9 28 -25 30 -14 2 -23 11 -25 25 -2 16 -11
23 -30 25 -24 3 -28 8 -28 33 0 26 -3 29 -30 29 -25 0 -30 4 -30 25 0 20 -5
25 -25 25 -21 0 -25 5 -25 30 0 27 -3 30 -30 30 -27 0 -30 3 -30 30 0 27 -3
30 -30 30 -25 0 -30 4 -30 25 0 20 -5 25 -25 25 -21 0 -25 5 -25 30 0 27 -3
30 -29 30 -25 0 -30 4 -33 28 -2 21 -9 28 -30 30 -22 3 -28 9 -28 28 0 19 -5
24 -25 24 -21 0 -25 5 -25 30 0 27 -3 30 -30 30 -25 0 -30 4 -30 24 0 19 -6
24 -37 30 -69 11 -73 9 -73 -29 0 -31 3 -35 25 -35 20 0 25 -5 25 -25 0 -21 5
-25 30 -25 27 0 30 -3 30 -30 0 -25 4 -30 24 -30 19 0 25 -6 28 -27 2 -22 9
-29 31 -31 21 -3 27 -9 27 -28 0 -20 5 -24 30 -24 27 0 30 -3 30 -30 0 -25 4
-30 24 -30 19 0 25 -6 28 -27 2 -22 9 -29 31 -31 21 -3 27 -9 27 -28 0 -19 5
-24 24 -24 19 0 25 -6 28 -27 2 -22 9 -29 31 -31 21 -3 27 -9 27 -28 0 -20 5
-24 30 -24 27 0 30 -3 30 -30 0 -25 4 -30 24 -30 19 0 25 -6 28 -27 2 -22 9
-29 31 -31 21 -3 27 -9 27 -28 0 -20 5 -24 30 -24 27 0 30 -3 30 -30 0 -25 4
-30 24 -30 20 0 24 -6 30 -40 3 -22 3 -58 0 -80 -6 -34 -10 -40 -30 -40 -20 0
-24 -5 -24 -30 0 -27 -3 -30 -30 -30 -25 0 -30 -4 -30 -24 0 -19 -6 -25 -27
-28 -22 -2 -29 -9 -31 -30 -3 -22 -9 -28 -28 -28 -20 0 -24 -5 -24 -30 0 -30
-1 -30 -55 -30 -54 0 -55 0 -55 30 0 27 -3 30 -30 30 -25 0 -30 4 -30 25 0 20
-5 25 -25 25 -21 0 -25 5 -25 30 0 27 -3 30 -30 30 -27 0 -30 3 -30 30 0 27
-3 30 -30 30 -25 0 -30 4 -30 25 0 20 -5 25 -25 25 -21 0 -25 5 -25 30 0 27
-3 30 -30 30 -25 0 -30 4 -30 24 0 19 -6 25 -27 28 -22 2 -29 9 -31 31 -3 21
-9 27 -28 27 -20 0 -24 5 -24 30 0 27 -3 30 -30 30 -25 0 -30 4 -30 25 0 20
-5 25 -25 25 -21 0 -25 5 -25 30 0 27 -3 30 -30 30 -27 0 -30 3 -30 30 0 27
-3 30 -30 30 -25 0 -30 4 -30 25 0 20 -5 25 -25 25 -21 0 -25 5 -25 30 l0 30
-60 0 c-66 0 -66 1 -54 -72 6 -32 11 -38 30 -38 20 0 24 -5 24 -30 0 -27 3
-30 30 -30 25 0 30 -4 30 -25 0 -20 5 -25 25 -25 21 0 25 -5 25 -30 0 -27 3
-30 30 -30 27 0 30 -3 30 -30 0 -27 3 -30 30 -30 25 0 30 -4 30 -25 0 -20 5
-25 25 -25 21 0 25 -5 25 -30 0 -27 3 -30 30 -30 27 0 30 -3 30 -30 0 -27 3
-30 30 -30 25 0 30 -4 30 -25 0 -20 5 -25 25 -25 21 0 25 -5 25 -30 0 -27 3
-30 30 -30 25 0 30 -4 30 -25 0 -20 5 -25 25 -25 21 0 25 -5 25 -30 0 -27 3
-30 30 -30 27 0 30 -3 30 -30 0 -27 3 -30 30 -30 25 0 30 -4 30 -25 0 -20 5
-25 25 -25 24 0 25 -3 25 -54 0 -52 -1 -55 -27 -58 -22 -2 -29 -9 -31 -30 -3
-22 -9 -28 -28 -28 -20 0 -24 -5 -24 -30 0 -27 -3 -30 -30 -30 -25 0 -30 -4
-30 -24 0 -19 -6 -25 -27 -28 -22 -2 -29 -9 -31 -30 -3 -22 -9 -28 -28 -28
-20 0 -24 -5 -24 -30 0 -30 -1 -30 -55 -30 -54 0 -55 0 -55 30 0 27 -3 30 -30
30 -27 0 -30 3 -30 30 0 25 -4 30 -25 30 -20 0 -25 5 -25 25 0 21 -5 25 -30
25 -27 0 -30 3 -30 30 0 25 -4 30 -25 30 -20 0 -25 5 -25 25 0 21 -5 25 -30
25 -27 0 -30 3 -30 30 0 27 -3 30 -30 30 -27 0 -30 3 -30 30 0 25 -4 30 -25
30 -20 0 -25 5 -25 25 0 21 -5 25 -30 25 -27 0 -30 3 -30 30 0 27 -3 30 -30
30 -27 0 -30 3 -30 30 0 25 -4 30 -25 30 -20 0 -25 5 -25 25 0 21 -5 25 -30
25 -27 0 -30 3 -30 30 0 25 -4 30 -24 30 -19 0 -25 6 -28 28 -2 21 -9 28 -30
30 -22 3 -28 9 -28 28 0 20 -5 24 -30 24 -27 0 -30 3 -30 30 0 25 -4 30 -25
30 -20 0 -25 5 -25 25 0 21 -5 25 -30 25 l-30 0 0 280 0 280 25 0 c21 0 25 5
25 30 0 27 3 30 30 30 25 0 30 4 30 24 0 19 6 25 28 28 21 2 28 9 30 31 3 21
9 27 28 27 20 0 24 5 24 30 0 27 3 30 30 30 25 0 30 4 30 24 0 19 6 25 28 28
21 2 28 9 30 31 3 21 9 27 28 27 20 0 24 5 24 30 0 27 3 30 30 30 25 0 30 4
30 25 0 20 5 25 25 25 21 0 25 5 25 30 0 27 3 30 30 30 27 0 30 3 30 30 0 27
3 30 30 30 25 0 30 4 30 25 0 20 5 25 25 25 21 0 25 5 25 30 0 27 3 30 30 30
27 0 30 3 30 30 0 25 4 30 25 30 20 0 25 5 25 25 0 21 5 25 30 25 27 0 30 3
30 30 0 27 3 30 30 30 25 0 30 4 30 25 0 24 3 25 55 25 52 0 55 -2 55 -24z
m1240 -1241 c0 -20 5 -25 24 -25 19 0 25 -6 28 -27 2 -22 9 -29 31 -31 21 -3
27 -9 27 -27 0 -18 6 -24 28 -27 21 -2 28 -9 30 -30 3 -22 9 -28 27 -28 18 0
24 -6 27 -27 2 -22 9 -29 31 -31 21 -3 27 -9 27 -27 0 -18 6 -24 28 -27 21 -2
28 -9 30 -30 3 -22 9 -28 28 -28 19 0 24 -5 24 -24 0 -19 6 -25 28 -28 21 -2
28 -9 30 -30 3 -22 9 -28 27 -28 18 0 24 -6 27 -27 2 -22 9 -29 31 -31 21 -3
27 -9 27 -27 0 -18 6 -24 28 -27 21 -2 28 -9 30 -30 3 -22 9 -28 27 -28 18 0
24 -6 27 -27 2 -22 9 -29 31 -31 24 -3 28 -7 25 -30 -2 -19 -10 -28 -25 -30
-14 -2 -23 -11 -25 -25 -2 -15 -11 -23 -30 -25 -21 -3 -27 -9 -30 -30 -2 -21
-9 -28 -30 -30 -22 -3 -28 -9 -28 -28 0 -19 -5 -24 -24 -24 -19 0 -25 -6 -28
-27 -2 -22 -9 -29 -30 -31 -21 -3 -27 -9 -30 -30 -2 -19 -10 -28 -25 -30 -14
-2 -23 -11 -25 -25 -2 -15 -11 -23 -30 -25 -21 -3 -27 -9 -30 -30 -2 -21 -9
-28 -30 -30 -21 -3 -27 -9 -30 -30 -2 -19 -10 -28 -25 -30 -14 -2 -23 -11 -25
-25 -2 -15 -11 -23 -30 -25 -21 -3 -27 -9 -30 -30 -2 -21 -9 -28 -30 -30 -22
-3 -28 -9 -28 -28 0 -19 -5 -24 -24 -24 -19 0 -25 -6 -28 -27 -2 -22 -9 -29
-30 -31 -21 -3 -27 -9 -30 -30 -2 -21 -9 -28 -30 -30 -28 -3 -28 -4 -28 -83
l0 -79 30 0 c25 0 30 4 30 24 0 19 6 25 28 28 21 2 28 9 30 31 3 21 9 27 28
27 20 0 24 5 24 30 0 27 3 30 30 30 25 0 30 4 30 25 0 20 5 25 25 25 21 0 25
5 25 30 0 27 3 30 30 30 25 0 30 4 30 24 0 19 6 25 28 28 21 2 28 9 30 30 3
22 9 28 28 28 20 0 24 5 24 30 0 27 3 30 30 30 25 0 30 4 30 24 0 19 6 25 28
28 21 2 28 9 30 31 3 21 9 27 28 27 20 0 24 5 24 30 0 27 3 30 30 30 25 0 30
4 30 25 0 20 5 25 25 25 21 0 25 5 25 30 0 27 3 30 30 30 25 0 30 4 30 24 0
19 6 25 28 28 21 2 28 9 30 31 3 21 9 27 28 27 19 0 24 -5 24 -24 0 -19 6 -25
28 -28 21 -2 28 -9 30 -30 3 -22 9 -28 27 -28 18 0 24 -6 27 -27 2 -22 9 -29
31 -31 21 -3 27 -9 27 -27 0 -18 6 -24 28 -27 21 -2 28 -9 30 -30 3 -22 9 -28
27 -28 18 0 24 -6 27 -27 2 -22 9 -29 31 -31 21 -3 27 -9 27 -28 0 -20 -5 -24
-30 -24 -27 0 -30 -3 -30 -30 0 -25 -4 -30 -25 -30 -20 0 -25 -5 -25 -25 0
-21 -5 -25 -30 -25 -27 0 -30 -3 -30 -30 0 -27 -3 -30 -30 -30 -27 0 -30 -3
-30 -30 0 -25 -4 -30 -25 -30 -20 0 -25 -5 -25 -25 0 -21 -5 -25 -30 -25 -27
0 -30 -3 -30 -30 0 -27 -3 -30 -30 -30 -25 0 -30 -4 -30 -25 0 -20 -5 -25 -25
-25 -21 0 -25 -5 -25 -30 0 -27 -3 -30 -30 -30 -27 0 -30 -3 -30 -30 0 -27 -3
-30 -30 -30 -25 0 -30 -4 -30 -25 0 -20 -5 -25 -25 -25 -21 0 -25 -5 -25 -30
0 -27 -3 -30 -30 -30 -25 0 -30 -4 -30 -25 0 -20 -5 -25 -25 -25 -21 0 -25 -5
-25 -30 0 -27 -3 -30 -30 -30 -27 0 -30 -3 -30 -30 0 -27 -3 -30 -30 -30 -25
0 -30 -4 -30 -25 0 -20 -5 -25 -25 -25 -21 0 -25 -5 -25 -30 0 -27 -3 -30 -30
-30 -25 0 -30 -4 -30 -25 l0 -25 -225 0 c-216 0 -225 1 -225 19 0 16 -10 21
-55 26 -52 7 -55 9 -55 36 0 24 -4 29 -24 29 -21 0 -25 6 -31 49 l-7 49 -48 7
c-43 6 -49 10 -52 33 -2 21 -9 28 -30 30 -22 3 -28 9 -28 28 0 20 -5 24 -30
24 -27 0 -30 3 -30 30 0 25 -4 30 -25 30 -20 0 -25 5 -25 25 0 21 -5 25 -30
25 -27 0 -30 3 -30 30 0 27 -3 30 -30 30 -27 0 -30 3 -30 30 0 25 -4 30 -25
30 -20 0 -25 5 -25 25 0 21 -5 25 -30 25 -27 0 -30 3 -30 30 0 27 -3 30 -30
30 -27 0 -30 3 -30 30 0 25 -4 30 -25 30 -20 0 -25 5 -25 25 0 21 -5 25 -30
25 -27 0 -30 3 -30 30 0 25 -4 30 -25 30 -20 0 -25 5 -25 25 0 21 -5 25 -30
25 -27 0 -30 3 -30 30 0 27 -3 30 -30 30 -25 0 -30 4 -30 25 0 21 5 25 30 25
27 0 30 3 30 30 0 25 4 30 24 30 19 0 25 6 28 28 2 21 9 28 31 30 21 3 27 9
27 27 0 18 6 24 28 27 21 2 28 9 30 31 3 21 9 27 28 27 19 0 24 5 24 24 0 19
6 25 28 28 21 2 28 9 30 30 3 21 9 27 30 30 21 2 28 9 30 31 3 21 9 27 28 27
19 0 24 5 24 25 0 21 5 25 30 25 27 0 30 3 30 30 0 25 4 30 24 30 19 0 25 6
28 28 2 21 9 28 31 30 21 3 27 9 27 28 0 20 5 24 30 24 27 0 30 3 30 30 0 25
4 30 25 30 20 0 25 5 25 24 0 19 6 25 28 28 21 2 28 9 30 30 3 21 9 27 30 30
21 2 28 9 30 31 3 21 9 27 28 27 19 0 24 5 24 25 0 21 5 25 30 25 27 0 30 3
30 30 0 25 4 30 24 30 19 0 25 6 28 28 2 21 9 28 31 30 21 3 27 9 27 28 0 20
5 24 30 24 27 0 30 3 30 30 0 25 4 30 25 30 20 0 25 5 25 25 0 21 5 25 30 25
25 0 30 -4 30 -25z"/>
<path d="M2930 3855 c0 -21 -5 -25 -30 -25 -27 0 -30 -3 -30 -30 0 -27 -3 -30
-30 -30 -27 0 -30 -3 -30 -30 0 -25 -4 -30 -25 -30 -20 0 -25 -5 -25 -25 0
-21 -5 -25 -30 -25 -27 0 -30 -3 -30 -30 0 -27 -3 -30 -30 -30 -27 0 -30 -3
-30 -30 0 -25 -4 -30 -25 -30 -20 0 -25 -5 -25 -25 0 -21 -5 -25 -30 -25 l-30
0 0 -60 c0 -66 -1 -66 73 -54 31 6 37 11 37 30 0 20 5 24 30 24 27 0 30 3 30
30 0 25 4 30 24 30 19 0 25 6 28 28 2 21 9 28 31 30 21 3 27 9 27 28 0 20 5
24 30 24 27 0 30 3 30 30 0 25 4 30 24 30 19 0 25 6 28 28 2 21 9 28 31 30 21
3 27 9 27 28 0 20 5 24 30 24 30 0 30 1 30 55 l0 55 -55 0 c-52 0 -55 -1 -55
-25z"/>
<path d="M2530 1715 c0 -21 -5 -25 -30 -25 -27 0 -30 -3 -30 -30 0 -25 -4 -30
-25 -30 -20 0 -25 -5 -25 -25 0 -21 -5 -25 -30 -25 -27 0 -30 -3 -30 -29 0
-25 -4 -30 -27 -33 -22 -2 -29 -9 -31 -30 -3 -22 -9 -28 -28 -28 -19 0 -24 -5
-24 -25 0 -21 -5 -25 -30 -25 -27 0 -30 -3 -30 -30 0 -25 -4 -30 -24 -30 -19
0 -25 -6 -28 -27 -2 -22 -9 -29 -30 -31 -22 -3 -28 -9 -28 -28 0 -23 3 -24 60
-24 57 0 60 1 60 25 0 20 5 25 25 25 21 0 25 5 25 30 0 27 3 30 30 30 25 0 30
4 30 24 0 19 6 25 28 28 21 2 28 9 30 31 3 21 9 27 28 27 20 0 24 5 24 30 0
27 3 30 30 30 25 0 30 4 30 24 0 19 6 25 28 28 21 2 28 9 30 31 3 21 9 27 28
27 20 0 24 5 24 30 0 25 4 30 25 30 20 0 25 5 25 25 0 24 -3 25 -55 25 -52 0
-55 -1 -55 -25z"/>
<path d="M4083 393 c-27 -3 -33 -9 -33 -29 0 -20 -5 -24 -30 -24 -27 0 -30 -3
-30 -30 0 -25 -4 -30 -25 -30 -20 0 -25 -5 -25 -25 0 -24 3 -25 55 -25 l55 0
0 -115 0 -115 30 0 c30 0 30 1 30 55 0 52 1 55 25 55 23 0 25 4 25 44 0 86 11
136 31 136 13 0 19 11 25 45 3 25 5 48 3 50 -8 7 -103 13 -136 8z"/>
<path d="M3150 360 c0 -25 -4 -30 -24 -30 -21 0 -25 -6 -31 -50 -6 -44 -10
-50 -30 -50 -19 0 -24 -6 -27 -32 -2 -25 -8 -34 -25 -36 -17 -3 -23 -12 -28
-53 -6 -43 -10 -49 -31 -49 -20 0 -24 -5 -24 -30 0 -25 4 -30 25 -30 20 0 25
5 25 24 0 19 6 25 28 28 21 2 28 9 30 31 3 21 9 27 28 27 20 0 24 5 24 30 l0
30 60 0 60 0 0 -85 0 -85 55 0 55 0 0 134 c0 164 -5 194 -34 198 -15 2 -22 11
-24 31 -3 26 -6 27 -58 27 -53 0 -54 0 -54 -30z"/>
<path d="M3518 53 c-22 -3 -28 -10 -28 -29 0 -24 2 -24 85 -24 l85 0 0 30 0
30 -57 -1 c-32 -1 -70 -4 -85 -6z"/>
<path d="M3827 53 c-4 -3 -7 -17 -7 -30 0 -22 2 -23 90 -23 88 0 90 1 90 24 0
20 -6 24 -46 30 -61 8 -119 8 -127 -1z"/>
</g>
</svg>
